 
http://www.imdb.com/title/tt1483013/



A veteran assigned to extract Earth's remaining resources begins to question what he knows about his mission and himself. 



Director:
 Joseph Kosinski 

Writers:
 Joseph Kosinski ,Karl Gajdusek 

Stars:
 Tom Cruise, Morgan Freeman, Andrea Riseborough 

Genres:
  Action |  Adventure |  Sci-Fi |  Thriller 

Country:
 USA 

Language:
 English 





Format                                   : AVI
Format/Info                              : Audio Video Interleave
Format profile                           : OpenDML
Format settings                          : rec
File size                                : 1.05 GiB
Duration                                 : 1h 57mn
Overall bit rate                         : 1 287 Kbps
Writing application                      : AVI-Mux GUI 1.17.8.3, Feb 16 201019:42:50

Video
ID                                       : 0
Format                                   : MPEG-4 Visual
Format profile                           : Advanced Simple@L5
Format settings, BVOP                    : 1
Format settings, QPel                    : No
Format settings, GMC                     : No warppoints
Format settings, Matrix                  : Default (H.263)
Muxing mode                              : Packed bitstream
Codec ID                                 : XVID
Codec ID/Hint                            : XviD
Duration                                 : 1h 57mn
Bit rate                                 : 1 090 Kbps
Width                                    : 720 pixels
Height                                   : 272 pixels
Display aspect ratio                     : 2.647
Frame rate                               : 25.000 fps
Color space                              : YUV
Chroma subsampling                       : 4:2:0
Bit depth                                : 8 bits
Scan type                                : Progressive
Compression mode                         : Lossy
Bits/(Pixel*Frame)                       : 0.223
Stream size                              : 912 MiB (85%)
Writing library                          : XviD 64

Audio
ID                                       : 1
Format                                   : AC-3
Format/Info                              : Audio Coding 3
Mode extension                           : CM (complete main)
Format settings, Endianness              : Big
Codec ID                                 : 2000
Duration                                 : 1h 57mn
Bit rate mode                            : Constant
Bit rate                                 : 192 Kbps
Channel(s)                               : 2 channels
Channel positions                        : Front: L R
Sampling rate                            : 48.0 KHz
Bit depth                                : 16 bits
Compression mode                         : Lossy
Stream size                              : 161 MiB (15%)
Alignment                                : Aligned on interleaves
Interleave, duration                     : 64 ms (1.60 video frames)
Interleave, preload duration             : 192 ms
Title                                    : audio-fanta



 
http://www.shotpix.com/images/03021851308197387071.png
 
http://www.shotpix.com/images/11676404468591338032.png
 
http://www.shotpix.com/images/73420942179497253732.png